<?xml version="1.0" encoding="UTF-8"?>
<svg version="1.1" xmlns="http://www.w3.org/2000/svg" width="1209" height="454">
<path d="M0 0 C398.97 0 797.94 0 1209 0 C1209 149.82 1209 299.64 1209 454 C810.03 454 411.06 454 0 454 C0 304.18 0 154.36 0 0 Z " fill="#0023FE" transform="translate(0,0)"/>
<path d="M0 0 C4.20553351 3.74100477 8.28624499 7.57739206 12.21484375 11.609375 C13.06755859 12.39441406 13.06755859 12.39441406 13.9375 13.1953125 C32.57342306 30.75679864 44.96328169 56.72108293 50.90234375 81.234375 C51.22440796 82.55876587 51.22440796 82.55876587 51.55297852 83.90991211 C53.95667053 94.19018497 54.40132648 104.15011478 54.40014648 114.67333984 C54.4023253 116.84102255 54.42051682 119.00818858 54.43945312 121.17578125 C54.47434658 129.8361515 53.85069774 138.07518316 52.21484375 146.609375 C52.0132666 147.67333496 51.81168945 148.73729492 51.60400391 149.83349609 C46.4615016 175.70276468 33.20954154 200.27738123 15.22265625 219.42578125 C13.15081676 221.62545681 13.15081676 221.62545681 11.171875 224.1875 C8.2358024 227.82096309 4.81212076 230.64623336 1.21484375 233.609375 C0.28671875 234.37507813 -0.64140625 235.14078125 -1.59765625 235.9296875 C-15.07663038 246.67916937 -29.59253157 254.72639115 -45.78515625 260.609375 C-46.51927734 260.88265625 -47.25339844 261.1559375 -48.00976562 261.4375 C-85.92024807 275.33036479 -127.35662766 271.79994005 -163.69140625 255.13598633 C-171.177759 251.56706638 -178.03510566 247.41324312 -184.78515625 242.609375 C-185.82414062 241.88621094 -186.863125 241.16304688 -187.93359375 240.41796875 C-216.72605274 219.41013756 -235.99488414 189.69099171 -245.78515625 155.609375 C-245.98415527 154.94421875 -246.1831543 154.2790625 -246.38818359 153.59375 C-249.88514841 141.40449343 -250.15689575 129.25710725 -250.16015625 116.671875 C-250.16301132 115.47881744 -250.16301132 115.47881744 -250.16592407 114.26165771 C-250.161666 98.53070878 -247.93984131 84.48013104 -242.78515625 69.609375 C-242.50929688 68.7937207 -242.2334375 67.97806641 -241.94921875 67.13769531 C-237.41610937 53.87433877 -231.70450302 42.17650799 -223.78515625 30.609375 C-223.39666504 30.03316406 -223.00817383 29.45695312 -222.60791016 28.86328125 C-205.11436537 3.32347145 -178.93507405 -16.29877596 -149.78515625 -26.390625 C-148.88925781 -26.74640625 -147.99335938 -27.1021875 -147.0703125 -27.46875 C-139.48838105 -30.45253506 -131.8057626 -32.03919681 -123.78515625 -33.390625 C-122.58503906 -33.59816406 -121.38492188 -33.80570312 -120.1484375 -34.01953125 C-77.41666744 -40.40473827 -32.86649711 -28.21079416 0 0 Z " fill="#0023FE" transform="translate(362.78515625,120.390625)"/>
<path d="M0 0 C3.5 0.25 3.5 0.25 5.5 2.25 C5.71230235 5.06050571 5.80396433 7.76989184 5.80078125 10.58203125 C5.80506638 11.41079269 5.8093515 12.23955414 5.81376648 13.09342957 C5.81951559 14.84946784 5.82000577 16.60552993 5.81567383 18.36157227 C5.81252456 21.04159592 5.83592753 23.72050442 5.86132812 26.40039062 C5.86360221 28.10676944 5.8643041 29.81315122 5.86328125 31.51953125 C5.872491 32.31865433 5.88170074 33.1177774 5.89118958 33.94111633 C5.85253406 38.6201214 5.28808311 41.3256728 2.5 45.25 C2.5 45.91 2.5 46.57 2.5 47.25 C3.10658447 47.57572998 3.71316895 47.90145996 4.33813477 48.23706055 C19.49954483 56.38864677 34.56697828 64.68672127 49.5 73.25 C50.35932129 73.74226074 51.21864258 74.23452148 52.10400391 74.74169922 C54.4899773 76.11274017 56.87110644 77.4917184 59.25 78.875 C59.94730225 79.27678467 60.64460449 79.67856934 61.36303711 80.0925293 C67.35454035 83.6060418 67.35454035 83.6060418 69.5 86.25 C69.88031673 88.1697073 69.88031673 88.1697073 69.88768005 90.38023376 C69.89758469 91.21999252 69.90748932 92.05975128 69.91769409 92.92495728 C69.91319244 93.84296112 69.9086908 94.76096497 69.90405273 95.70678711 C69.91091599 96.67615707 69.91777924 97.64552704 69.92485046 98.64427185 C69.94318371 101.85544393 69.93927156 105.06613046 69.93359375 108.27734375 C69.93815248 110.50549988 69.94345713 112.73365459 69.94947815 114.96180725 C69.95842215 119.63499661 69.9559715 124.3080152 69.94604492 128.98120117 C69.93455506 134.97494567 69.9547609 140.96810107 69.98396206 146.96176815 C70.00229352 151.56425228 70.00203765 156.16659445 69.99632454 160.76910591 C69.99617094 162.9791401 70.00224672 165.18918369 70.01461601 167.39918327 C70.02946583 170.48777264 70.01889262 173.57526376 70.00170898 176.66381836 C70.01621094 178.03778778 70.01621094 178.03778778 70.03100586 179.43951416 C70.01625465 180.70338203 70.01625465 180.70338203 70.00120544 181.99278259 C70.00099616 182.72263335 70.00078688 183.45248411 70.00057125 184.20445156 C69.25801783 187.23884275 67.98577093 188.39589226 65.5 190.25 C62.58267212 190.75336456 62.58267212 190.75336456 59.12353516 190.75793457 C57.81120911 190.76921387 56.49888306 190.78049316 55.14678955 190.79211426 C53.69421166 190.78433719 52.24163595 190.77614452 50.7890625 190.76757812 C49.25802952 190.77299875 47.72700176 190.78012108 46.19598389 190.78881836 C42.03893 190.80706198 37.88227297 190.79998006 33.7252121 190.78730202 C29.37620468 190.77717966 25.0272314 190.78656556 20.67822266 190.79284668 C13.37461238 190.80012533 6.07116385 190.79052973 -1.23242188 190.77148438 C-9.67813518 190.74971515 -18.12346224 190.75676637 -26.56916618 190.77879 C-33.81853989 190.79693785 -41.06779728 190.79950535 -48.31718636 190.78903532 C-52.64778093 190.78279698 -56.97819392 190.78197403 -61.30877686 190.79518127 C-65.38007449 190.8067303 -69.45087385 190.79873184 -73.52211761 190.77560425 C-75.0168856 190.77031202 -76.51169548 190.77183977 -78.00644684 190.78065491 C-80.04546112 190.79157175 -82.08456696 190.77545928 -84.12353516 190.75793457 C-85.26505035 190.75642647 -86.40656555 190.75491837 -87.58267212 190.75336456 C-91.1797726 190.13270998 -92.36165341 189.17276876 -94.5 186.25 C-95.00895119 184.21003819 -95.00895119 184.21003819 -95.02139282 182.00624084 C-95.04264725 180.74670845 -95.04264725 180.74670845 -95.06433105 179.46173096 C-95.05937622 178.54889343 -95.05442139 177.63605591 -95.04931641 176.69555664 C-95.05953827 175.72764694 -95.06976013 174.75973724 -95.08029175 173.76249695 C-95.10810284 170.56146546 -95.1061693 167.36129422 -95.1015625 164.16015625 C-95.10933524 161.93582335 -95.11800434 159.71149343 -95.12753296 157.48716736 C-95.14246131 152.82411071 -95.14187216 148.16135689 -95.13134766 143.49829102 C-95.11975573 137.52122972 -95.15362182 131.54540744 -95.200037 125.56855106 C-95.2294945 120.9745712 -95.23125763 116.38089038 -95.22501755 111.78683281 C-95.22604481 109.58319074 -95.23653617 107.37953211 -95.25664139 105.17598152 C-95.28130672 102.09444696 -95.26783185 99.01533342 -95.24462891 95.93383789 C-95.25991638 95.0230246 -95.27520386 94.1122113 -95.29095459 93.17379761 C-95.19041419 87.13570779 -95.19041419 87.13570779 -93.21924877 84.60696983 C-89.95617495 81.82275876 -86.13940516 79.75426281 -82.37890625 77.71875 C-81.80569138 77.40573441 -81.2324765 77.09271881 -80.64189148 76.7702179 C-79.41805616 76.10277894 -78.19261653 75.43827439 -76.96569824 74.77651978 C-74.37567348 73.37954936 -71.79345708 71.96843143 -69.21084595 70.55781555 C-67.89430959 69.8387688 -66.57739349 69.1204169 -65.26010132 68.40275574 C-59.05448513 65.01869514 -52.89642649 61.55284875 -46.75 58.0625 C-40.34964632 54.42819394 -33.94108106 50.81175748 -27.5 47.25 C-28.46776098 43.45452079 -28.46776098 43.45452079 -30.5 40.25 C-30.65354338 37.44488047 -30.73165776 34.68136329 -30.75 31.875 C-30.770625 31.09382813 -30.79125 30.31265625 -30.8125 29.5078125 C-30.85205685 23.73251243 -30.85205685 23.73251243 -29.20996094 21.48193359 C-27.5 20.25 -27.5 20.25 -23.8125 20.5625 C-22.719375 20.789375 -21.62625 21.01625 -20.5 21.25 C-18.43044535 25.83139316 -18.11252323 29.85863341 -17.84375 34.82421875 C-17.72259666 37.42800437 -17.72259666 37.42800437 -15.5 39.25 C-11.97105052 39.16256309 -11.97105052 39.16256309 -8.5 38.25 C-6.09814945 34.64722417 -6.18764754 31.97389024 -6.15625 27.80859375 C-6.1416272 27.08511246 -6.12700439 26.36163116 -6.11193848 25.6162262 C-6.04968845 22.52272964 -6.01000515 19.42903537 -5.96826172 16.33520508 C-5.93458297 14.07611976 -5.88946608 11.81746225 -5.84375 9.55859375 C-5.8384729 8.85649277 -5.8331958 8.15439178 -5.82775879 7.43101501 C-5.72227118 2.31284657 -5.55432072 0.39673719 0 0 Z " fill="#F4F7FC" transform="translate(277.5,142.75)"/>
<path d="M0 0 C0.83524704 -0.00570007 1.67049408 -0.01140015 2.53105164 -0.01727295 C4.29681145 -0.02668119 6.0625885 -0.03324023 7.82836914 -0.03710938 C10.46599175 -0.04670858 13.10279766 -0.07772675 15.74023438 -0.109375 C32.32972029 -0.21346177 47.66168937 2.14848005 63.33935547 7.56787109 C65.0971422 8.16825979 66.86865397 8.72802121 68.640625 9.28515625 C88.75072678 15.87977827 106.18075415 27.59119029 122.19921875 41.203125 C122.93011719 41.81027344 123.66101563 42.41742188 124.4140625 43.04296875 C129.16534743 47.06468977 133.2226241 51.42275058 137.19921875 56.203125 C137.88757813 57.00363281 138.5759375 57.80414063 139.28515625 58.62890625 C153.89492313 75.92994598 164.03350897 94.79651992 171.19921875 116.203125 C171.60140625 117.38519531 172.00359375 118.56726563 172.41796875 119.78515625 C182.03600457 150.49729334 180.86669612 185.71908715 171.19921875 216.203125 C170.91433594 217.25371094 170.62945312 218.30429687 170.3359375 219.38671875 C167.76757583 228.63055789 163.7011788 236.7854086 159.19921875 245.203125 C158.59207031 246.3684375 157.98492187 247.53375 157.359375 248.734375 C153.61746641 255.63277731 149.37982433 261.89934013 144.63671875 268.140625 C144.10667236 268.83857178 143.57662598 269.53651855 143.03051758 270.25561523 C139.39867403 274.92337041 135.45593796 279.10339118 131.19921875 283.203125 C130.37421875 284.028125 129.54921875 284.853125 128.69921875 285.703125 C127.87421875 286.528125 127.04921875 287.353125 126.19921875 288.203125 C125.75835937 288.69039063 125.3175 289.17765625 124.86328125 289.6796875 C108.36230234 307.3533248 84.48554993 319.01304694 61.88671875 326.453125 C60.90396973 326.78256104 59.9212207 327.11199707 58.90869141 327.45141602 C43.95126272 332.1958202 29.1467624 333.69270964 13.52050781 333.53930664 C10.93653461 333.51550818 8.35358819 333.51880611 5.76953125 333.52539062 C-8.1840082 333.50417806 -21.26187187 332.05010242 -34.67578125 328.015625 C-35.71025391 327.70737793 -36.74472656 327.39913086 -37.81054688 327.08154297 C-62.43712461 319.54568759 -84.82274974 306.54255414 -103.33300781 288.61962891 C-104.80570849 287.19836987 -106.29820623 285.80034058 -107.79296875 284.40234375 C-120.37035357 272.45168464 -129.84656506 258.55993622 -137.80078125 243.203125 C-138.12876709 242.58083008 -138.45675293 241.95853516 -138.79467773 241.31738281 C-141.53625926 236.00385721 -143.74096337 230.53903296 -145.86328125 224.953125 C-146.37084961 223.65568359 -146.37084961 223.65568359 -146.88867188 222.33203125 C-161.78257479 183.3255621 -158.96328443 137.0227892 -142.18359375 99.2109375 C-137.50407957 88.98663739 -132.58975604 79.19916194 -125.80078125 70.203125 C-125.04023438 69.14996094 -124.2796875 68.09679687 -123.49609375 67.01171875 C-97.72539195 32.13188736 -58.72454601 7.9586812 -15.80078125 1.203125 C-14.76074951 1.03184082 -13.72071777 0.86055664 -12.64916992 0.68408203 C-8.40341388 0.15346353 -4.27300205 0.02321163 0 0 Z M-37.80078125 22.203125 C-38.78304687 22.48671875 -39.7653125 22.7703125 -40.77734375 23.0625 C-60.7651024 28.89914578 -78.52677757 41.44964365 -93.33300781 55.79101562 C-94.80173623 57.20404377 -96.29503383 58.58679052 -97.79296875 59.96875 C-106.12551293 67.8009629 -112.57455656 76.64216101 -118.80078125 86.203125 C-119.18218262 86.77724121 -119.56358398 87.35135742 -119.95654297 87.94287109 C-132.65573461 107.31660329 -140.71859542 133.03106412 -141.07421875 156.171875 C-141.09307884 157.2957235 -141.09307884 157.2957235 -141.11231995 158.442276 C-141.34462674 175.62599275 -140.90706354 191.63814023 -135.80078125 208.203125 C-135.5490918 209.05567871 -135.29740234 209.90823242 -135.03808594 210.78662109 C-127.80195699 234.87519374 -115.16213156 255.20330919 -97.80078125 273.203125 C-96.54201172 274.57404297 -96.54201172 274.57404297 -95.2578125 275.97265625 C-70.56601431 302.08395267 -32.8183402 318.05979461 2.9296875 319.48828125 C23.77349665 319.96727294 43.63997318 317.5181036 63.19921875 310.203125 C63.93897949 309.92952148 64.67874023 309.65591797 65.44091797 309.37402344 C87.03726518 301.26294201 105.08021108 288.74631708 121.19921875 272.203125 C121.76769531 271.67976563 122.33617187 271.15640625 122.921875 270.6171875 C146.35233771 248.53758646 162.18223054 211.49352961 163.32519531 179.69873047 C163.40625467 175.57445105 163.44528647 171.45308843 163.44921875 167.328125 C163.45022583 166.59557495 163.45123291 165.8630249 163.45227051 165.10827637 C163.43707718 148.75042161 161.71869229 133.71021734 156.19921875 118.203125 C155.77898437 116.95273438 155.35875 115.70234375 154.92578125 114.4140625 C148.45521302 95.69456879 137.75053309 78.80480097 124.20703125 64.38671875 C122.19921875 62.203125 122.19921875 62.203125 120.15625 59.625 C117.2201774 55.99153691 113.79649576 53.16626664 110.19921875 50.203125 C108.80703125 49.05457031 108.80703125 49.05457031 107.38671875 47.8828125 C87.13816069 31.73458744 63.65142563 21.13395567 38.19921875 16.203125 C36.88763794 15.94825317 36.88763794 15.94825317 35.54956055 15.68823242 C28.44702958 14.39460863 21.60091118 13.85060737 14.38671875 13.890625 C12.7780896 13.89799683 12.7780896 13.89799683 11.13696289 13.90551758 C-5.85254155 14.14852743 -21.80434584 16.52349175 -37.80078125 22.203125 Z " fill="#F3F5FC" transform="translate(253.80078125,70.796875)"/>
<path d="M0 0 C4.35984461 -0.12363227 8.71876055 -0.21434908 13.07983398 -0.2746582 C14.56308768 -0.2997981 16.04621753 -0.33391592 17.52905273 -0.37719727 C19.66160595 -0.43788258 21.79252205 -0.46621116 23.92578125 -0.48828125 C25.85031128 -0.52755737 25.85031128 -0.52755737 27.8137207 -0.56762695 C31 0 31 0 32.86036682 2.30883789 C34.31201436 5.73679956 35.5344152 9.20274721 36.65234375 12.75 C36.90479355 13.53238037 37.15724335 14.31476074 37.41734314 15.12084961 C38.2630629 17.74544775 39.10019975 20.37270492 39.9375 23 C41.17574571 26.85501752 42.4181723 30.70868549 43.66015625 34.5625 C43.99406372 35.60075928 44.32797119 36.63901855 44.67199707 37.70874023 C47.30593749 45.8863588 49.98305282 54.04918495 52.67623329 62.20742798 C53.36863111 64.30503947 54.06041107 66.40285374 54.7519989 68.50073242 C57.49718153 76.82807869 57.49718153 76.82807869 60.25021362 85.15283203 C61.1311066 87.81227836 62.00973045 90.47245157 62.88563538 93.13354492 C63.68969296 95.57627168 64.4971097 98.017896 65.30833435 100.45825195 C65.66404007 101.54195068 66.01974579 102.62564941 66.38623047 103.7421875 C66.85583694 105.16313721 66.85583694 105.16313721 67.33493042 106.61279297 C68 109 68 109 68 112 C68.66 112 69.32 112 70 112 C70.09665451 111.42541046 70.19330902 110.85082092 70.29289246 110.25881958 C71.61082521 103.03885568 73.75152733 96.24420004 76.11328125 89.3046875 C76.73594884 87.44947601 77.35861363 85.59426358 77.9811554 83.73900986 C78.63797436 81.78526359 79.29770183 79.83252265 79.95834351 77.88006592 C82.00911201 71.81871233 84.04243462 65.75149867 86.0772419 59.68477249 C86.75745778 57.65730728 87.43839358 55.63008479 88.11936951 53.60287476 C92.61221806 40.21857113 96.97718206 26.79376885 101.30395508 13.35498047 C101.67612656 12.20153137 101.67612656 12.20153137 102.05581665 11.02478027 C102.51056163 9.61471893 102.96386092 8.20419012 103.41537476 6.79309082 C104.16966721 4.45297014 104.89860475 2.20279049 106 0 C116.56 0 127.12 0 138 0 C138.91516144 21.06091519 139.8208675 42.12219007 140.7113142 63.18416405 C140.91882576 68.09061514 141.12812532 72.99698597 141.33837891 77.90332031 C142.42185365 103.28125095 143.34536641 128.59638206 143 154 C136.73 154 130.46 154 124 154 C123.47653991 138.13556151 122.95482538 122.2710669 122.43539429 106.40649605 C122.19414446 99.03952259 121.95228908 91.67256996 121.70898438 84.30566406 C121.49680464 77.88112881 121.28578531 71.45655664 121.07613182 65.03193843 C120.96518795 61.633397 120.85368178 58.2348762 120.74078369 54.83639908 C120.61472903 51.03307067 120.49072529 47.22968041 120.3671875 43.42626953 C120.32978455 42.31208145 120.29238159 41.19789337 120.25384521 40.04994202 C120.04996017 33.69720235 119.95313213 27.35596329 120 21 C119.01 21 118.02 21 117 21 C116.63648438 22.81371094 116.63648438 22.81371094 116.265625 24.6640625 C114.84461865 31.03383485 112.78417165 37.17927069 110.75 43.375 C110.31269927 44.71683898 109.87578101 46.05880266 109.43920898 47.40087891 C108.48297152 50.33828047 107.52423635 53.27485233 106.56396484 56.2109375 C104.90577546 61.28388062 103.25932311 66.36060488 101.61328125 71.4375 C94.51207572 93.32655025 87.31737574 115.18227355 80 137 C72.74 137 65.48 137 58 137 C57.29617188 134.88851562 56.59234375 132.77703125 55.8671875 130.6015625 C55.62070465 129.86220459 55.3742218 129.12284668 55.12026978 128.36108398 C53.83398548 124.50263733 52.54821748 120.64401954 51.26318359 116.78515625 C48.59161606 108.76428783 45.91640268 100.74470113 43.22616577 92.73007202 C41.99095204 89.0493371 40.75812065 85.36780607 39.52545166 81.68621826 C38.93555383 79.92644102 38.34457023 78.16702728 37.75238037 76.40802002 C34.33997577 66.27026053 31.06503262 56.10926975 28.04873657 45.8458252 C26.16747924 39.45703959 24.07321957 33.15990398 21.8828125 26.87109375 C21 24 21 24 21 21 C20.01 21 19.02 21 18 21 C17.98018066 22.26739014 17.96036133 23.53478027 17.93994141 24.84057617 C17.45221481 55.2930732 16.57472008 85.71115511 15.35009766 116.14260864 C14.98700761 125.1980708 14.66925887 134.2545654 14.375 143.3125 C14.33503906 144.54009033 14.29507813 145.76768066 14.25390625 147.0324707 C14.168203 149.68827956 14.08389271 152.34413334 14 155 C7.4 155 0.8 155 -6 155 C-5.88027832 151.95869873 -5.76055664 148.91739746 -5.63720703 145.78393555 C-4.41147448 114.61912492 -3.2047466 83.45361091 -2.00842285 52.28765869 C-1.7805053 46.35127189 -1.55234956 40.41489424 -1.32421875 34.47851562 C-0.88259018 22.98568562 -0.44120746 11.49284618 0 0 Z " fill="#F4F6FC" transform="translate(515,162)"/>
<path d="M0 0 C1.0362854 0.27142822 1.0362854 0.27142822 2.09350586 0.54833984 C9.90321754 2.72591866 16.36317874 9.26052616 20.9375 15.75 C27.10908628 27.31412603 26.40354674 40.38734852 26.29296875 53.08203125 C26.28736118 54.99158899 26.28309658 56.90115109 26.28010559 58.81071472 C26.2687481 63.79359221 26.2393611 68.77619996 26.20599365 73.75897217 C26.17509473 78.86076206 26.16155823 83.96259628 26.14648438 89.06445312 C26.11448109 99.04310526 26.0617894 109.02148781 26 119 C19.73 119 13.46 119 7 119 C6.67 111.08 6.34 103.16 6 95 C5.01 97.64 4.02 100.28 3 103 C-2.29905917 111.78129806 -9.99879721 117.09961912 -19.75 120.1875 C-32.33949442 122.70967376 -45.98127112 122.14405403 -57.25 115.75 C-63.35661287 111.62957839 -67.98657024 106.18672324 -70 99 C-70.42126043 95.19964716 -70.41942034 91.44514907 -70.375 87.625 C-70.38660156 86.635 -70.39820313 85.645 -70.41015625 84.625 C-70.37344461 75.34919251 -68.71513681 67.68807566 -62.1875 60.84765625 C-48.95379606 49.66990275 -29.1696072 48.340155 -12.625 46.25 C-10.93218358 46.028167 -9.23947436 45.8055144 -7.546875 45.58203125 C4.54041466 44 4.54041466 44 7 44 C5.55384104 31.29208159 5.55384104 31.29208159 -1.125 20.75 C-2.07375 20.1725 -3.0225 19.595 -4 19 C-4.89332031 18.443125 -4.89332031 18.443125 -5.8046875 17.875 C-11.8936657 14.75466953 -17.86227358 14.63668916 -24.5625 14.625 C-25.44873047 14.62338867 -26.33496094 14.62177734 -27.24804688 14.62011719 C-40.52008124 14.84181041 -52.66670411 19.20002247 -64 26 C-64.66 26 -65.32 26 -66 26 C-65.88566637 23.74943278 -65.75813564 21.49953326 -65.625 19.25 C-65.55539062 17.99703125 -65.48578125 16.7440625 -65.4140625 15.453125 C-64.79502035 10.2905471 -64.79502035 10.2905471 -63 8 C-60.71945648 6.62813359 -58.60241434 5.50936358 -56.1875 4.4375 C-55.5066333 4.13448975 -54.8257666 3.83147949 -54.12426758 3.51928711 C-37.62358594 -3.59257789 -17.38727867 -4.8398269 0 0 Z " fill="#F4F6FC" transform="translate(754,198)"/>
<path d="M0 0 C6.6 0 13.2 0 20 0 C20 29.7 20 59.4 20 90 C30.03621243 89.79292232 30.03621243 89.79292232 36.13085938 84.44335938 C36.64455078 83.80205078 37.15824219 83.16074219 37.6875 82.5 C38.87753561 81.12381357 40.06899865 79.74886048 41.26171875 78.375 C41.87063965 77.65570313 42.47956055 76.93640625 43.10693359 76.1953125 C46.92218992 71.77091414 50.99240461 67.57562924 55.05322266 63.37719727 C58.37456318 59.91451463 61.47228591 56.45788178 64.31640625 52.58984375 C71.87594117 42.69685191 71.87594117 42.69685191 77.85009766 41.36425781 C84.60896989 40.73117222 91.27732019 41.15293192 98 42 C98 44 98 44 95.8984375 46.23046875 C94.93490274 47.15637073 93.96854988 48.07934544 93 49 C91.96910782 50.01464982 90.94053653 51.03166202 89.9140625 52.05078125 C89.37934326 52.58034424 88.84462402 53.10990723 88.29370117 53.65551758 C83.55454119 58.36139597 78.93086912 63.08142081 74.60546875 68.17578125 C72.1897609 70.92063664 69.56525503 73.44340788 66.9609375 76.0078125 C65.09521194 77.90327074 63.35340745 79.85446735 61.625 81.875 C57.35430645 86.84921847 52.67522621 91.40943584 48 96 C49.28923981 98.78823237 50.68619531 100.98996602 52.72265625 103.28515625 C53.25632812 103.89230469 53.79 104.49945313 54.33984375 105.125 C54.90832031 105.764375 55.47679687 106.40375 56.0625 107.0625 C57.25250461 108.41691314 58.44130257 109.77238739 59.62890625 111.12890625 C60.20914551 111.79164551 60.78938477 112.45438477 61.38720703 113.13720703 C63.47662472 115.5505066 65.49461325 118.01660672 67.5 120.5 C71.07541411 124.91668802 74.76596211 129.21783171 78.5 133.5 C83.11941815 138.7976634 87.63767425 144.15279874 92.0546875 149.62109375 C93.84626727 151.81200154 95.68952619 153.94124826 97.5625 156.0625 C100 159 100 159 100 161 C81.05806335 163.36683176 81.05806335 163.36683176 74.77978516 159.70507812 C70.92448558 156.31409202 68.0652436 152.20979509 65.27441406 147.92724609 C63.53202844 145.29230507 61.53623945 142.91210443 59.5 140.5 C58.79617188 139.63117188 58.09234375 138.76234375 57.3671875 137.8671875 C54.5080079 134.40408878 51.57295302 131.01254875 48.625 127.625 C46.41639942 125.08356542 44.20789441 122.54204811 42 120 C41.45359863 119.37109863 40.90719727 118.74219727 40.34423828 118.09423828 C38.7866483 116.29651398 37.23612145 114.49295106 35.6875 112.6875 C35.21328613 112.1423877 34.73907227 111.59727539 34.25048828 111.03564453 C31 107.22897514 31 107.22897514 31 105 C27.37 105 23.74 105 20 105 C20 123.48 20 141.96 20 161 C13.4 161 6.8 161 0 161 C0 107.87 0 54.74 0 0 Z " fill="#F1F4FC" transform="translate(900,156)"/>
<path d="M0 0 C0.02964256 3.41664764 0.0470096 6.83326121 0.0625 10.25 C0.07087891 11.19875 0.07925781 12.1475 0.08789062 13.125 C0.1117846 20.19761637 -0.40767338 26.89208051 -1 34 C14.84 34 30.68 34 47 34 C47 43 47 43 46 50 C30.82 50 15.64 50 0 50 C0.09087836 62.44841495 0.09087836 62.44841495 0.20898438 74.89648438 C0.26322316 79.97677794 0.31433639 85.05696319 0.34643555 90.13745117 C0.37252813 94.23547728 0.41297207 98.33313779 0.46318626 102.43093681 C0.47981486 103.99090449 0.49135403 105.55093534 0.49761391 107.11097908 C0.5072991 109.30361996 0.53540857 111.49533395 0.56762695 113.68774414 C0.58428154 115.55638878 0.58428154 115.55638878 0.60127258 117.46278381 C1.19857787 122.7616367 2.88404468 126.60505584 6.25 130.8125 C13.24048713 136.37311476 22.52514643 135.58417201 31 135 C34.78328918 134.27782041 38.35002556 133.21294882 42 132 C44.33133997 131.32639562 46.66430518 130.65834535 49 130 C48.91299202 132.43922361 48.80613998 134.87478414 48.6875 137.3125 C48.66494141 138.00279297 48.64238281 138.69308594 48.61914062 139.40429688 C48.34997937 144.4694223 48.34997937 144.4694223 46.78125 146.84765625 C40.73543657 150.75887327 33.13844312 152.7223296 26 153 C24.80246094 153.0515625 23.60492187 153.103125 22.37109375 153.15625 C11.26481529 153.47762772 0.29643449 152.69343283 -9 146 C-17.64156123 137.60417037 -19.99078743 128.04895858 -20.21136665 116.22569752 C-20.23909183 112.54202744 -20.22087319 108.85940932 -20.1953125 105.17578125 C-20.191574 103.57724689 -20.18873099 101.97871022 -20.18673706 100.38017273 C-20.17916641 96.20945712 -20.15957583 92.0388848 -20.1373291 87.8682251 C-20.11672769 83.59771665 -20.10770503 79.32718464 -20.09765625 75.05664062 C-20.0763225 66.70435458 -20.04119541 58.35221172 -20 50 C-26.27 50 -32.54 50 -39 50 C-39 44.72 -39 39.44 -39 34 C-32.73 34 -26.46 34 -20 34 C-20 23.44 -20 12.88 -20 2 C-16.885625 1.67 -13.77125 1.34 -10.5625 1 C-9.57967041 0.89558594 -8.59684082 0.79117188 -7.58422852 0.68359375 C-6.43071899 0.56177734 -6.43071899 0.56177734 -5.25390625 0.4375 C-4.46314697 0.35371094 -3.6723877 0.26992187 -2.85766602 0.18359375 C-1 0 -1 0 0 0 Z " fill="#F2F5FC" transform="translate(1045,166)"/>
<path d="M0 0 C0.96205088 6.37358711 1.10655578 12.55929529 1 19 C-0.5778125 18.7525 -0.5778125 18.7525 -2.1875 18.5 C-14.41441507 17.05519698 -25.8606551 17.47170708 -36.3125 24.6875 C-41.5054117 28.94807265 -46.50184074 34.70724008 -49 41 C-49.20813359 43.57273641 -49.31107263 46.04088799 -49.31884766 48.61425781 C-49.32889328 49.37562042 -49.3389389 50.13698303 -49.34928894 50.92141724 C-49.38012062 53.43197898 -49.3971559 55.94243408 -49.4140625 58.453125 C-49.43277417 60.19619667 -49.45234759 61.93925929 -49.4727478 63.68231201 C-49.52407512 68.26565206 -49.56369763 72.84902148 -49.60089111 77.43249512 C-49.64092699 82.11132069 -49.69202124 86.79002402 -49.7421875 91.46875 C-49.83895397 100.64575601 -49.92233425 109.82281244 -50 119 C-56.6 119 -63.2 119 -70 119 C-70 79.73 -70 40.46 -70 0 C-63.73 0 -57.46 0 -51 0 C-50.67 8.25 -50.34 16.5 -50 25 C-48.35 21.7 -46.7 18.4 -45 15 C-34.87916514 0.31410527 -17.18130056 -5.72710019 0 0 Z " fill="#F2F5FC" transform="translate(880,198)"/>
<path d="M0 0 C1.02658678 24.07582904 1.02658678 24.07582904 -5 32 C-5.556875 32.9075 -6.11375 33.815 -6.6875 34.75 C-14.4153987 42.26903657 -24.34228276 46.01500737 -35 46.4375 C-41.72701305 46.22998289 -47.76403798 44.84052878 -52.91796875 40.31640625 C-58.21758166 34.46291455 -58.46647429 29.04785284 -58.4140625 21.2734375 C-57.65009923 15.23380334 -54.33652827 11.88220333 -49.75 8.1875 C-41.1361077 4.46786469 -32.18075055 3.07674449 -22.9375 1.8125 C-21.72255859 1.63525391 -20.50761719 1.45800781 -19.25585938 1.27539062 C-12.7692348 0.36480214 -6.54899531 -0.20443581 0 0 Z " fill="#0325FE" transform="translate(761,257)"/>
<path d="M0 0 C1.62072434 0.77229497 3.2180586 1.5945108 4.796875 2.44921875 C5.74498047 2.96129883 6.69308594 3.47337891 7.66992188 4.00097656 C8.68634766 4.5575293 9.70277344 5.11408203 10.75 5.6875 C12.32104492 6.54359863 12.32104492 6.54359863 13.92382812 7.41699219 C21.84227319 11.75822428 29.69063857 16.21574105 37.5 20.75 C38.55026367 21.35803467 39.60052734 21.96606934 40.68261719 22.5925293 C41.64329102 23.15496338 42.60396484 23.71739746 43.59375 24.296875 C44.44646484 24.79541992 45.29917969 25.29396484 46.17773438 25.80761719 C47.07975586 26.39784668 47.07975586 26.39784668 48 27 C48 27.33 48 27.66 48 28 C14.34 28 -19.32 28 -54 28 C-51.43906849 25.43906849 -49.79787216 24.18622428 -46.703125 22.5390625 C-45.83719727 22.07346924 -44.97126953 21.60787598 -44.07910156 21.12817383 C-42.67869629 20.38410278 -42.67869629 20.38410278 -41.25 19.625 C-31.84485067 14.56717221 -22.52422327 9.37698331 -13.23925781 4.10205078 C-12.31983398 3.57981934 -11.40041016 3.05758789 -10.453125 2.51953125 C-9.64004883 2.05651611 -8.82697266 1.59350098 -7.98925781 1.11645508 C-4.68342425 -0.73891764 -3.64011177 -1.19770629 0 0 Z " fill="#0124FE" transform="translate(268,197)"/>
<path d="M0 0 C3.50406653 0.59825526 4.43599744 1.59033704 6.5625 4.4375 C6.96022619 7.41819513 7.12397059 10.02154303 7.09375 13 C7.0975769 13.82830322 7.10140381 14.65660645 7.10534668 15.51000977 C7.10806425 17.25831317 7.10071381 19.00665734 7.08398438 20.75488281 C7.06257082 23.42865777 7.08378944 26.09974596 7.109375 28.7734375 C7.10673169 30.47396425 7.10160665 32.17448934 7.09375 33.875 C7.10184692 34.67301025 7.10994385 35.47102051 7.11828613 36.29321289 C7.05746591 39.89928855 6.87750665 42.01573927 4.68945312 44.9453125 C2.5625 46.4375 2.5625 46.4375 0 46.875 C-2.89750452 46.35493509 -3.62783864 45.70691317 -5.4375 43.4375 C-5.73597993 40.38887475 -5.85771845 37.54889905 -5.8359375 34.5 C-5.83880768 33.62351807 -5.84167786 32.74703613 -5.84463501 31.84399414 C-5.84667598 29.99136712 -5.84114378 28.13871858 -5.82861328 26.28613281 C-5.81255984 23.44807821 -5.82846055 20.61144773 -5.84765625 17.7734375 C-5.84567382 15.97395519 -5.84183016 14.17447376 -5.8359375 12.375 C-5.84201019 11.52494385 -5.84808289 10.6748877 -5.8543396 9.79907227 C-5.78346609 3.87136018 -5.78346609 3.87136018 -4.06558228 1.71704102 C-2.4375 0.4375 -2.4375 0.4375 0 0 Z " fill="#092AFE" transform="translate(310.4375,255.5625)"/>
<path d="M0 0 C3.50406653 0.59825526 4.43599744 1.59033704 6.5625 4.4375 C6.96022619 7.41819513 7.12397059 10.02154303 7.09375 13 C7.0975769 13.82830322 7.10140381 14.65660645 7.10534668 15.51000977 C7.10806425 17.25831317 7.10071381 19.00665734 7.08398438 20.75488281 C7.06257082 23.42865777 7.08378944 26.09974596 7.109375 28.7734375 C7.10673169 30.47396425 7.10160665 32.17448934 7.09375 33.875 C7.10184692 34.67301025 7.10994385 35.47102051 7.11828613 36.29321289 C7.05748438 39.89819348 6.87915905 42.01418727 4.68945312 44.94140625 C2.5625 46.4375 2.5625 46.4375 0 46.9375 C-2.4375 46.4375 -2.4375 46.4375 -4.06494141 44.95727539 C-6.09751007 41.22583798 -5.86682138 37.8067302 -5.8359375 33.62109375 C-5.83880768 32.76822281 -5.84167786 31.91535187 -5.84463501 31.03663635 C-5.84667323 29.23706395 -5.84116028 27.43746927 -5.82861328 25.63793945 C-5.81253599 22.88117091 -5.8284799 20.12586404 -5.84765625 17.36914062 C-5.84567416 15.61978843 -5.8418312 13.87043714 -5.8359375 12.12109375 C-5.84201019 11.29604843 -5.84808289 10.47100311 -5.8543396 9.62095642 C-5.78349335 3.8696973 -5.78349335 3.8696973 -4.06558228 1.72377014 C-2.4375 0.4375 -2.4375 0.4375 0 0 Z " fill="#0628FE" transform="translate(249.4375,255.5625)"/>
<path d="M0 0 C2.875 0.9375 2.875 0.9375 4.875 3.9375 C5.09523857 6.79190287 5.20302333 9.54634841 5.2109375 12.40234375 C5.2175943 13.23206192 5.2242511 14.06178009 5.23110962 14.91664124 C5.24123111 16.67088607 5.24592679 18.42516936 5.24560547 20.17944336 C5.2499785 22.86181106 5.28630084 25.54253285 5.32421875 28.22460938 C5.33008709 29.92968188 5.33405637 31.63476219 5.3359375 33.33984375 C5.35030853 34.14099106 5.36467957 34.94213837 5.37948608 35.76756287 C5.34974501 39.3964844 5.18609705 41.5144259 3.00634766 44.47875977 C0.875 45.9375 0.875 45.9375 -1.6875 45.875 C-4.4529684 44.81135831 -5.431281 44.36513382 -7.125 41.9375 C-7.43558538 39.04314454 -7.56917783 36.36839018 -7.55859375 33.47265625 C-7.5638356 32.64293808 -7.56907745 31.81321991 -7.57447815 30.95835876 C-7.58089946 29.20410277 -7.5795599 27.44980372 -7.57104492 25.69555664 C-7.56254138 23.013053 -7.59128191 20.33268345 -7.62304688 17.65039062 C-7.62465917 15.94531314 -7.62408081 14.24023188 -7.62109375 12.53515625 C-7.63232773 11.73400894 -7.64356171 10.93286163 -7.65513611 10.10743713 C-7.61013058 6.50542426 -7.42634251 4.35466641 -5.28930664 1.39624023 C-3.125 -0.0625 -3.125 -0.0625 0 0 Z " fill="#0829FE" transform="translate(281.125,256.0625)"/>
<path d="M0 0 C2.9375 0.8125 2.9375 0.8125 4.9375 2.8125 C5.16212781 5.79023423 5.26568178 8.67216552 5.2734375 11.65234375 C5.2800943 12.53024063 5.2867511 13.40813751 5.29360962 14.31263733 C5.30374428 16.17121278 5.30842639 18.02982468 5.30810547 19.88842773 C5.31247769 22.73547185 5.34878481 25.58096487 5.38671875 28.42773438 C5.39258689 30.23176552 5.3965563 32.03580404 5.3984375 33.83984375 C5.41280853 34.69303696 5.42717957 35.54623016 5.44198608 36.42527771 C5.39644853 42.30241698 5.39644853 42.30241698 3.07275391 44.88500977 C0.26576439 46.10428179 -1.19809737 45.79242722 -4.0625 44.8125 C-6.71492022 42.16007978 -6.32254263 40.1740268 -6.36604309 36.56422424 C-6.36513168 35.70900681 -6.36422028 34.85378937 -6.36328125 33.97265625 C-6.36756638 33.09475937 -6.3718515 32.21686249 -6.37626648 31.31236267 C-6.382015 29.45377465 -6.38250621 27.59516413 -6.37817383 25.73657227 C-6.37501636 22.88974668 -6.39845737 20.04396243 -6.42382812 17.19726562 C-6.42610128 15.39323048 -6.42680454 13.58919254 -6.42578125 11.78515625 C-6.434991 10.93196304 -6.44420074 10.07876984 -6.45368958 9.19972229 C-6.40716567 3.26809364 -6.40716567 3.26809364 -4.7306366 1.05198669 C-3.0625 -0.1875 -3.0625 -0.1875 0 0 Z " fill="#0224FE" transform="translate(220.0625,256.1875)"/>
</svg>
